<svg width="40" height="39" viewBox="0 0 40 39" fill="none" xmlns="http://www.w3.org/2000/svg">
<circle cx="20.3929" cy="19.4999" r="19.5" fill="#E3B873"/>
<path d="M24.5714 11.6991H16.2142C13.9065 11.6991 12.0356 13.5699 12.0356 15.8776V24.2348C12.0356 26.5425 13.9065 28.4134 16.2142 28.4134H24.5714C26.8791 28.4134 28.7499 26.5425 28.7499 24.2348V15.8776C28.7499 13.5699 26.8791 11.6991 24.5714 11.6991Z" stroke="white" stroke-width="1.5"/>
<path d="M23.7356 19.5299C23.8388 20.2255 23.72 20.9358 23.3961 21.5599C23.0723 22.184 22.5599 22.6901 21.9318 23.0062C21.3038 23.3223 20.592 23.4324 19.8978 23.3207C19.2036 23.209 18.5623 22.8812 18.0652 22.384C17.568 21.8868 17.2402 21.2455 17.1285 20.5514C17.0168 19.8572 17.1268 19.1454 17.443 18.5174C17.7591 17.8893 18.2652 17.3769 18.8893 17.0531C19.5134 16.7292 20.2237 16.6104 20.9193 16.7136C21.6287 16.8188 22.2855 17.1494 22.7927 17.6565C23.2998 18.1637 23.6304 18.8205 23.7356 19.5299Z" stroke="white" stroke-width="1.5" stroke-linecap="round" stroke-linejoin="round"/>
</svg>
