<svg width="114" height="28" viewBox="0 0 114 28" fill="none" xmlns="http://www.w3.org/2000/svg">
<rect x="0.000610352" y="13" width="32" height="1.54334" rx="0.771672" fill="#E3B873"/>
<rect x="82.0006" y="13" width="32" height="1.54334" rx="0.771672" fill="#E3B873"/>
<path d="M67.4075 21.1434C66.8258 20.7342 66.1545 20.5143 65.4764 20.4785C62.9207 18.8053 61.2465 17.5495 60.2691 16.5724L57.2666 13.5707L59.0886 11.5318C59.4339 11.7266 59.8048 11.855 60.1758 11.908C60.4557 11.9546 60.6423 11.9546 60.829 11.9546C61.2022 11.9546 61.2955 11.9546 61.6688 12.2811C61.4822 12.421 61.3888 12.6543 61.3888 12.8874C61.3888 13.1206 61.4822 13.4005 61.6688 13.5871L63.3018 15.2196C63.5351 15.4995 63.9083 15.6394 64.2816 15.6394C64.6548 15.6394 65.028 15.4995 65.2613 15.173L68.574 11.8613C68.8539 11.6281 68.9939 11.255 68.9939 10.8818C68.9939 10.5086 68.8539 10.1822 68.574 9.9023L66.941 8.26978C66.7544 8.08322 66.5211 7.98992 66.2878 7.98992C66.0545 7.98992 65.8212 8.12985 65.6346 8.26978C65.2613 7.94329 65.2613 7.84999 65.2613 7.47682C65.2613 7.29027 65.2613 7.05704 65.168 6.77718C65.0746 6.12415 64.748 5.47119 64.2348 4.95809L62.5552 3.27894C61.5754 2.29943 61.1088 1.83302 59.8491 1.2733C57.1431 0.013935 54.3903 0.247169 50.3779 2.06625C50.1446 2.15956 50.0513 2.34611 50.0979 2.57935C50.1446 2.81258 50.3312 2.95251 50.5645 2.95251H51.171C53.2239 2.95251 54.2969 2.95251 56.1632 4.81822C56.9804 5.63517 57.004 6.88781 56.2718 7.80943C56.1731 7.8243 56.098 7.86857 56.0233 7.94329L53.9507 10.2558L52.3841 8.68962C50.6621 6.96816 49.451 5.33946 48.5188 3.52589C48.4699 2.60821 48.1015 1.74961 47.4385 1.0868C46.6454 0.293903 45.5256 -0.0792601 44.4059 0.0140444C44.2659 0.0606694 44.126 0.153974 44.0793 0.247278C43.986 0.387208 43.986 0.573762 44.0793 0.713692L45.3857 3.04587C45.1057 3.65221 44.4525 4.02537 43.7994 3.97875L42.4463 1.73982C42.3997 1.59989 42.213 1.50659 42.0731 1.50659C41.9331 1.45996 41.7931 1.55321 41.6998 1.69314C40.58 3.3723 40.9999 5.61117 42.6796 6.77723C43.2583 7.19046 43.9102 7.42025 44.5705 7.46737C44.5778 7.47048 44.5848 7.47431 44.5924 7.47688C46.412 8.40976 48.045 9.62245 49.7713 11.3483L51.4777 13.0154L41.5599 24.0819C41.1866 24.4551 41 24.9681 41 25.4812C41 25.9943 41.1866 26.4607 41.5599 26.8339L42.2131 27.4869C42.5864 27.8134 43.0529 28 43.5194 28C43.986 28 44.4992 27.8134 44.8725 27.4403L54.779 16.3545L57.6563 19.2311C58.6352 20.2096 59.8935 21.9332 61.5707 24.448C61.6309 25.3457 61.9984 26.1839 62.6486 26.8339C63.3484 27.5335 64.2816 27.9067 65.2613 27.9067C65.4013 27.9067 65.5413 27.9067 65.6346 27.9067C65.7746 27.9067 65.9145 27.8134 66.0079 27.6735C66.1012 27.5335 66.1012 27.347 66.0079 27.207L64.6548 24.9216C64.9814 24.3152 65.588 23.942 66.2878 23.9887L67.5942 26.2275C67.6408 26.3675 67.8275 26.4608 67.9674 26.4608C68.154 26.4141 68.294 26.3675 68.3874 26.2275C69.507 24.5483 69.0404 22.3095 67.4075 21.1434ZM56.7699 4.072C55.2768 2.62608 54.1571 2.15961 52.8974 2.01968C55.5568 1.18011 57.5163 1.22673 59.4759 2.11299C60.5957 2.5794 60.9689 2.95256 61.9487 3.93207L63.6283 5.61122C64.0016 5.98439 64.2349 6.4508 64.2816 6.91722C64.3282 7.15045 64.3282 7.337 64.3282 7.47693C64.3282 7.99003 64.3748 8.36313 64.9347 8.92285C65.1213 9.10941 65.4013 9.20271 65.6346 9.20271C65.9145 9.20271 66.1478 9.10941 66.2878 8.92285L67.9208 10.5554C68.0141 10.6487 68.0607 10.7419 68.0607 10.8819C68.0607 11.0218 68.0141 11.1151 67.9208 11.2083L64.6081 14.52C64.4215 14.7066 64.1416 14.7066 63.9549 14.52L62.3219 12.8875C62.5085 12.7476 62.6019 12.5143 62.5552 12.2345C62.5552 12.0012 62.4619 11.7214 62.2753 11.5348C61.7154 10.9751 61.3422 10.9285 60.829 10.9285C60.689 10.9285 60.5024 10.9285 60.2691 10.8819C59.7559 10.8352 59.3359 10.602 58.9627 10.2288L56.9565 8.22321C57.9829 6.96389 57.8896 5.19144 56.7699 4.072ZM42.1198 2.95256L43.0995 4.63172C43.1929 4.77165 43.3328 4.86495 43.4728 4.86495H43.7061C44.7792 4.91158 45.759 4.35186 46.2255 3.41903L46.3189 3.1858C46.4122 3.04587 46.4122 2.90594 46.3189 2.76601L45.2924 0.993551C45.8523 1.08686 46.3655 1.36671 46.7854 1.7865C47.2665 2.30747 47.5744 2.96634 47.5927 3.67408C47.5836 3.70999 47.5785 3.74863 47.5785 3.7922C47.5785 4.00821 47.5525 4.21893 47.5042 4.42204C47.3282 5.09742 46.9061 5.68627 46.3188 6.07775C45.3857 6.68409 44.126 6.68409 43.1929 6.03112C42.2131 5.33137 41.7932 4.072 42.1198 2.95256ZM50.4246 10.6953C49.0249 9.24939 47.6252 8.12996 46.1322 7.2437C46.3655 7.15039 46.6454 7.01046 46.8786 6.87054C47.5785 6.40412 48.045 5.79772 48.325 5.05145C49.2114 6.54405 50.3312 7.94335 51.7309 9.34264L53.3334 10.9447L52.0767 12.347L50.4246 10.6953ZM44.2193 26.7406C43.846 27.1137 43.2395 27.1604 42.8662 26.7872L42.213 26.1809C42.0264 25.9943 41.9331 25.7611 41.9331 25.5278C41.9331 25.248 42.0264 25.0147 42.2597 24.7816L42.5239 24.486L43.1928 25.1547C43.2861 25.248 43.3794 25.2947 43.5194 25.2947C43.6594 25.2947 43.7527 25.248 43.846 25.1547C44.0326 24.9682 44.0326 24.6883 43.846 24.5017L43.1404 23.7964L43.757 23.1067L44.4992 23.8487C44.5925 23.942 44.6858 23.9886 44.8257 23.9886C44.9657 23.9886 45.059 23.942 45.1523 23.8487C45.3389 23.6621 45.3389 23.3823 45.1523 23.1957L44.3736 22.4171L56.3746 8.99413L58.3341 10.9531L56.4087 13.1067C56.3537 13.13 56.3051 13.1656 56.2566 13.214L54.3904 15.313C54.3371 15.3663 54.2996 15.4273 54.2767 15.4914L44.2193 26.7406ZM55.4174 15.6401L56.6942 14.2113L59.7092 17.2254C60.549 18.1116 61.9953 19.231 64.0948 20.6303C63.8149 20.7236 63.535 20.8635 63.255 21.0501C62.6762 21.4118 62.2662 21.9139 61.9805 22.4691C61.9763 22.477 61.9724 22.4851 61.9683 22.4931C61.9513 22.5265 61.9348 22.56 61.9188 22.5938C61.8957 22.6416 61.8739 22.69 61.8529 22.7389C61.8386 22.7719 61.8243 22.805 61.8108 22.8383C61.8089 22.8431 61.8071 22.8479 61.8051 22.8527C61.7904 22.8892 61.7758 22.9258 61.7621 22.9625C61.497 22.5739 61.2421 22.2072 60.9969 21.8617L61.6221 21.2367C61.8087 21.0501 61.8087 20.7703 61.6221 20.5837C61.4355 20.3971 61.1555 20.3971 60.9689 20.5837L60.4488 21.1037C60.2549 20.8406 60.0676 20.5925 59.887 20.3593L60.3157 19.9307C60.5023 19.7441 60.5023 19.4642 60.3157 19.2776C60.1291 19.0911 59.8492 19.0911 59.6625 19.2776L59.3064 19.6337C58.9634 19.2205 58.6471 18.8689 58.3562 18.578L55.4174 15.6401ZM67.9207 24.9681L66.9409 23.289C66.8476 23.149 66.7076 23.0557 66.5676 23.0557H66.3343C65.2612 22.9624 64.2814 23.5688 63.8149 24.5017L63.7216 24.7349C63.6282 24.8748 63.6282 25.0147 63.7216 25.1547L64.748 26.9271C64.1881 26.8338 63.6749 26.554 63.255 26.1342C62.7831 25.6231 62.478 24.9792 62.4493 24.2868C62.4573 24.2527 62.4618 24.2161 62.4618 24.1752C62.4618 23.5843 62.6494 23.0311 62.9765 22.5625C63.1774 22.2829 63.4287 22.0382 63.7215 21.843C64.1881 21.5166 64.7013 21.3766 65.2612 21.3766C65.8211 21.3766 66.3809 21.5632 66.8475 21.8897C67.8274 22.5893 68.2473 23.8487 67.9207 24.9681Z" fill="#E3B873"/>
</svg>
